<svg width="123" height="32" viewBox="0 0 123 32" fill="none" xmlns="http://www.w3.org/2000/svg">
<path d="M50.2876 13.8265L47.3141 13.2676C45.3505 12.8764 44.9016 12.6529 44.9016 11.591C44.9016 10.5292 45.5749 10.0821 47.7629 10.0821C50.2315 10.0821 50.9609 10.6409 50.9609 12.4293V12.7088L54.6638 11.7028C54.3832 8.79668 52.3074 6.67297 47.8751 6.67297C43.0502 6.67297 41.1987 9.18789 41.1987 11.7587C41.1987 14.3854 42.5452 15.9502 45.7432 16.5091L48.7167 17.0121C51.0731 17.4033 51.3536 17.7945 51.3536 18.9122C51.3536 20.03 50.8487 20.4771 48.6606 20.4771C45.631 20.4771 44.9577 19.9741 44.9577 18.1298V17.8504L41.2548 18.8563C41.5354 22.1537 43.8356 23.8862 48.4362 23.8862C53.2051 23.8862 55.0004 21.483 55.0004 18.8004C55.0565 16.3973 53.8222 14.553 50.2876 13.8265Z" fill="#030319"/>
<path d="M68.5777 16.2855V16.0061C68.5777 12.9323 66.1091 10.8645 62.7429 10.8645C58.535 10.8645 56.1226 13.4353 56.1226 17.4592C56.1226 21.4271 58.3667 23.9421 62.5185 23.9421C65.9969 23.9421 68.5216 21.8742 68.5216 18.8005V18.521H64.7626V18.6887C64.7626 20.0859 63.9772 20.5888 62.4062 20.5888C60.6109 20.5888 59.8254 19.7505 59.8254 17.4033C59.8254 15.056 60.6109 14.2177 62.4062 14.2177C63.9772 14.2177 64.7626 14.6648 64.7626 16.1179V16.3414H68.5777V16.2855Z" fill="#030319"/>
<path d="M76.1515 10.8086C72.6169 10.8086 70.2605 12.7646 70.2605 15.7825V16.062L73.8512 15.7825C73.8512 14.4971 74.4683 14.1059 75.9831 14.1059C77.4419 14.1059 78.2834 14.3854 78.2834 15.8384V16.2296L73.9634 16.9003C71.3826 17.2915 69.98 18.521 69.98 20.4212C69.98 22.7125 71.7192 23.8861 73.9634 23.8861C76.3198 23.8861 77.5541 22.8802 78.2834 21.9301H78.4517V23.6067H81.9302V16.1737C81.818 12.8764 79.8543 10.8086 76.1515 10.8086ZM75.1416 21.0359C74.0195 21.0359 73.5146 20.8124 73.5146 20.1417C73.5146 19.6387 73.8512 19.3593 74.6366 19.2475L78.2273 18.6887C78.2273 20.6447 76.6564 21.0359 75.1416 21.0359Z" fill="#030319"/>
<path d="M84.0625 7.90257V23.6627H87.8215V6.89661L84.0625 7.90257Z" fill="#030319"/>
<path d="M90.1777 7.90257V23.6627H93.9367V6.89661L90.1777 7.90257Z" fill="#030319"/>
<path d="M102.128 10.8086C98.0888 10.8086 95.6763 13.3794 95.6763 17.3474C95.6763 21.3153 98.0888 23.8861 102.128 23.8861C106.168 23.8861 108.524 21.3153 108.524 17.3474C108.524 13.3794 106.168 10.8086 102.128 10.8086ZM102.128 20.5888C100.052 20.5888 99.3791 19.8064 99.3791 17.3474C99.3791 14.8883 100.109 14.1059 102.128 14.1059C104.148 14.1059 104.877 14.8883 104.877 17.3474C104.821 19.8064 104.148 20.5888 102.128 20.5888Z" fill="#030319"/>
<path d="M96.7163 14.0854L100.049 12.2877L105.705 12.812L107.203 17.4561L102.784 22.2126L98.514 20.9767L96.7163 18.1303V14.0854Z" fill="#030319"/>
<path d="M98.7671 17.3474C98.7671 19.2639 100.326 20.823 102.243 20.823C102.529 20.823 102.819 20.7873 103.105 20.7113C103.163 20.6979 103.217 20.6577 103.243 20.5997L103.3 20.4892C103.717 19.6824 104.427 19.0663 105.285 18.768C105.374 18.7367 105.432 18.6563 105.432 18.5625V16.1278C105.432 16.0339 105.374 15.9535 105.285 15.9223C104.428 15.624 103.718 15.007 103.304 14.1993L103.248 14.0906C103.221 14.037 103.168 13.9968 103.109 13.9789C102.824 13.9074 102.533 13.8717 102.243 13.8717C100.326 13.8717 98.7671 15.4308 98.7671 17.3474Z" fill="white"/>
<path d="M117.613 10.8086C115.705 10.8086 114.246 11.5351 113.573 12.9323H113.461V11.088H109.982V27.8541L113.741 26.8482V21.986H113.854C114.415 23.0478 115.649 23.8861 117.669 23.8861C121.091 23.8861 122.999 21.3153 122.999 17.3474C123.055 13.3794 121.147 10.8086 117.613 10.8086ZM116.491 20.7006C114.695 20.7006 113.741 20.0858 113.741 18.3533V16.3414C113.741 14.6648 114.751 13.9942 116.491 13.9942C118.679 13.9942 119.24 15.056 119.24 17.3474C119.24 19.6387 118.679 20.7006 116.491 20.7006Z" fill="#030319"/>
<path d="M22.1446 1.87569C19.647 4.44894 17.1495 7.01273 14.6519 9.58598C14.6235 9.6049 14.6046 9.62382 14.5762 9.6522L9.13644 15.092C8.61611 15.6123 8.61611 16.4732 9.13644 16.9935L14.2924 22.1495L7.94442 28.8002C6.96053 28.1285 6.02394 27.3528 5.09681 26.4162C-1.5539 19.7749 -1.78096 11.5632 4.91706 4.85574C10.2244 -0.451588 16.4872 -1.35033 22.1446 1.87569Z" fill="url(#paint0_linear)"/>
<path d="M26.6102 26.5392C21.3123 31.8276 15.0873 32.7736 9.46777 29.7368L11.7004 27.4001C13.4128 25.631 15.1157 23.8713 16.828 22.1022L18.5498 20.3804L21.9272 17.003C22.4475 16.4827 22.4475 15.6218 21.9272 15.1015L20.3757 13.55L16.8091 9.98336L23.0909 3.40833L23.6396 2.8407C24.5667 3.49347 25.4938 4.27869 26.3736 5.15851C32.9676 11.7335 33.2514 19.8885 26.6102 26.5392Z" fill="url(#paint1_linear)"/>
<path d="M15.9202 9.32131C15.9105 9.32131 15.9009 9.32131 15.9009 9.31165C15.9009 9.31165 15.9105 9.32131 15.9202 9.32131Z" fill="url(#paint2_linear)"/>
<defs>
<linearGradient id="paint0_linear" x1="18.1726" y1="-10.5733" x2="-24.1327" y2="81.8597" gradientUnits="userSpaceOnUse">
<stop stop-color="#00DECA"/>
<stop offset="0.37798" stop-color="#3A8AFA"/>
<stop offset="1" stop-color="#1A6AF4"/>
</linearGradient>
<linearGradient id="paint1_linear" x1="27.5129" y1="-7.66398" x2="-14.5324" y2="84.1523" gradientUnits="userSpaceOnUse">
<stop stop-color="#00DECA"/>
<stop offset="0.37798" stop-color="#3A8AFA"/>
<stop offset="1" stop-color="#1A6AF4"/>
</linearGradient>
<linearGradient id="paint2_linear" x1="15.9167" y1="9.3081" x2="15.9103" y2="9.34449" gradientUnits="userSpaceOnUse">
<stop stop-color="#00DECA"/>
<stop offset="0.37798" stop-color="#3A8AFA"/>
<stop offset="1" stop-color="#1A6AF4"/>
</linearGradient>
</defs>
</svg>
