<svg width="15" height="19" viewBox="0 0 15 19" fill="none" xmlns="http://www.w3.org/2000/svg">
<path d="M12.3043 8.24115C12.7114 7.6398 12.9471 6.93891 12.9859 6.21374C13.0248 5.48856 12.8654 4.7665 12.5249 4.12508C12.1843 3.48366 11.6755 2.94712 11.053 2.57308C10.4305 2.19903 9.71791 2.0016 8.9917 2.002V1.002C8.9917 0.736782 8.88634 0.482428 8.69881 0.294892C8.51127 0.107356 8.25692 0.0019989 7.9917 0.0019989C7.72648 0.0019989 7.47213 0.107356 7.28459 0.294892C7.09706 0.482428 6.9917 0.736782 6.9917 1.002V2.002H4.9917V1.002C4.9917 0.736782 4.88634 0.482428 4.69881 0.294892C4.51127 0.107356 4.25692 0.0019989 3.9917 0.0019989C3.72648 0.0019989 3.47213 0.107356 3.28459 0.294892C3.09706 0.482428 2.9917 0.736782 2.9917 1.002V2.002H1.9917C1.72648 2.002 1.47213 2.10736 1.28459 2.29489C1.09706 2.48243 0.991699 2.73678 0.991699 3.002C0.991699 3.26722 1.09706 3.52157 1.28459 3.70911C1.47213 3.89664 1.72648 4.002 1.9917 4.002H2.9917V14.002H1.9917C1.72648 14.002 1.47213 14.1074 1.28459 14.2949C1.09706 14.4824 0.991699 14.7368 0.991699 15.002C0.991699 15.2672 1.09706 15.5216 1.28459 15.7091C1.47213 15.8966 1.72648 16.002 1.9917 16.002H2.9917V17.002C2.9917 17.2672 3.09706 17.5216 3.28459 17.7091C3.47213 17.8966 3.72648 18.002 3.9917 18.002C4.25692 18.002 4.51127 17.8966 4.69881 17.7091C4.88634 17.5216 4.9917 17.2672 4.9917 17.002V16.002H6.9917V17.002C6.9917 17.2672 7.09706 17.5216 7.28459 17.7091C7.47213 17.8966 7.72648 18.002 7.9917 18.002C8.25692 18.002 8.51127 17.8966 8.69881 17.7091C8.88634 17.5216 8.9917 17.2672 8.9917 17.002V16.002H10.9917C11.9362 16.0044 12.851 15.6717 13.5733 15.063C14.2955 14.4542 14.7783 13.609 14.9358 12.6777C15.0933 11.7463 14.9153 10.7893 14.4334 9.97695C13.9516 9.16457 13.1971 8.5495 12.3043 8.2412V8.24115ZM4.9917 4.002H8.9917C9.52213 4.002 10.0308 4.21271 10.4059 4.58779C10.781 4.96286 10.9917 5.47157 10.9917 6.002C10.9917 6.53243 10.781 7.04114 10.4059 7.41621C10.0308 7.79129 9.52213 8.002 8.9917 8.002H4.9917V4.002ZM10.9917 14.002H4.9917V10.002H10.9917C11.5221 10.002 12.0308 10.2127 12.4059 10.5878C12.781 10.9629 12.9917 11.4716 12.9917 12.002C12.9917 12.5324 12.781 13.0411 12.4059 13.4162C12.0308 13.7913 11.5221 14.002 10.9917 14.002Z" fill="#2A85FF"/>
</svg>
