<svg width="34" height="34" viewBox="0 0 34 34" fill="none" xmlns="http://www.w3.org/2000/svg">
<mask id="mask0_2157_1086" style="mask-type:alpha" maskUnits="userSpaceOnUse" x="0" y="0" width="34" height="34">
<path d="M33.25 17.2916C33.25 26.3813 25.8813 33.7499 16.7916 33.7499C7.70196 33.7499 0.333328 26.3813 0.333328 17.2916C0.333328 8.20195 7.70196 0.833313 16.7916 0.833313C25.8813 0.833313 33.25 8.20195 33.25 17.2916Z" fill="#C4C4C4"/>
</mask>
<g mask="url(#mask0_2157_1086)">
<mask id="mask1_2157_1086" style="mask-type:alpha" maskUnits="userSpaceOnUse" x="-8" y="0" width="51" height="35">
<path d="M-7.89577 4.12473C-7.89577 2.3068 -6.42204 0.833069 -4.60411 0.833069H39.2161C41.0341 0.833069 42.5078 2.3068 42.5078 4.12473V31.4867C42.5078 33.3046 41.0341 34.7783 39.2161 34.7783H-4.6041C-6.42204 34.7783 -7.89577 33.3046 -7.89577 31.4867V4.12473Z" fill="#C4C4C4"/>
</mask>
<g mask="url(#mask1_2157_1086)">
<g filter="url(#filter0_d_2157_1086)">
<mask id="mask2_2157_1086" style="mask-type:alpha" maskUnits="userSpaceOnUse" x="-8" y="0" width="51" height="35">
<path d="M-7.89577 0.833069H42.5078V34.7783H-7.89577V0.833069Z" fill="white"/>
</mask>
<g mask="url(#mask2_2157_1086)">
<path fill-rule="evenodd" clip-rule="evenodd" d="M-11.256 0.833069V34.7783H42.5078V0.833069H-11.256Z" fill="#F7FCFF"/>
<mask id="mask3_2157_1086" style="mask-type:alpha" maskUnits="userSpaceOnUse" x="-12" y="0" width="55" height="35">
<path fill-rule="evenodd" clip-rule="evenodd" d="M-11.256 0.833069V34.7783H42.5078V0.833069H-11.256Z" fill="white"/>
</mask>
<g mask="url(#mask3_2157_1086)">
<path fill-rule="evenodd" clip-rule="evenodd" d="M-10.1359 0.833069V34.7783H42.5078V0.833069H-10.1359Z" fill="#3D58DB"/>
<path fill-rule="evenodd" clip-rule="evenodd" d="M15.4811 6.43397L15.1825 8.19285L16.7461 7.36242L18.3097 8.19285L18.0111 6.43397L19.2761 5.06001H17.5279L16.7461 3.33142L15.9643 5.06001H14.2161L15.4811 6.43397ZM15.4811 29.7719L15.1825 31.5308L16.7461 30.7004L18.3097 31.5308L18.0111 29.7719L19.2761 28.398H17.5279L16.7461 26.6694L15.9643 28.398H14.2161L15.4811 29.7719ZM3.00992 19.9801L3.30854 18.2212L2.04355 16.8472H3.79173L4.57354 15.1187L5.35535 16.8472H7.10353L5.83853 18.2212L6.13716 19.9801L4.57354 19.1497L3.00992 19.9801ZM5.4546 25.5441L7.01822 24.7137L8.58183 25.5441L8.28321 23.7853L9.54821 22.4113H7.80003L7.01822 20.6827L6.23641 22.4113H4.48823L5.75322 23.7853L5.4546 25.5441ZM26.4889 24.7137L24.9253 25.5441L25.2239 23.7853L23.9589 22.4113H25.7071L26.4889 20.6827L27.2707 22.4113H29.0189L27.7539 23.7853L28.0525 25.5441L26.4889 24.7137ZM5.4546 14.2713L7.01822 13.4409L8.58183 14.2713L8.28321 12.5124L9.54821 11.1385H7.80003L7.01822 9.40988L6.23641 11.1385H4.48823L5.75322 12.5124L5.4546 14.2713ZM26.4889 13.4409L24.9253 14.2713L25.2239 12.5124L23.9589 11.1385H25.7071L26.4889 9.40988L27.2707 11.1385H29.0189L27.7539 12.5124L28.0525 14.2713L26.4889 13.4409ZM9.63824 28.2622L9.33961 30.0211L10.9032 29.1906L12.4669 30.0211L12.1682 28.2622L13.4332 26.8882H11.685L10.9032 25.1596L10.1214 26.8882H8.37325L9.63824 28.2622ZM22.7304 29.1906L21.1668 30.0211L21.4654 28.2622L20.2004 26.8882H21.9486L22.7304 25.1596L23.5122 26.8882H25.2604L23.9954 28.2622L24.294 30.0211L22.7304 29.1906ZM9.33961 9.72274L10.9032 8.89231L12.4669 9.72274L12.1682 7.96386L13.4332 6.5899H11.685L10.9032 4.86131L10.1214 6.5899H8.37325L9.63824 7.96386L9.33961 9.72274ZM22.7304 8.89231L21.1668 9.72274L21.4654 7.96386L20.2004 6.5899H21.9486L22.7304 4.86131L23.5122 6.5899H25.2604L23.9954 7.96386L24.294 9.72274L22.7304 8.89231ZM27.253 19.8213L28.8166 18.9908L30.3802 19.8213L30.0816 18.0624L31.3466 16.6884H29.5984L28.8166 14.9598L28.0348 16.6884H26.2866L27.5516 18.0624L27.253 19.8213Z" fill="#FFD018"/>
</g>
</g>
</g>
</g>
</g>
<defs>
<filter id="filter0_d_2157_1086" x="-10.8958" y="-0.166931" width="56.4035" height="39.9453" filterUnits="userSpaceOnUse" color-interpolation-filters="sRGB">
<feFlood flood-opacity="0" result="BackgroundImageFix"/>
<feColorMatrix in="SourceAlpha" type="matrix" values="0 0 0 0 0 0 0 0 0 0 0 0 0 0 0 0 0 0 127 0" result="hardAlpha"/>
<feOffset dy="2"/>
<feGaussianBlur stdDeviation="1.5"/>
<feColorMatrix type="matrix" values="0 0 0 0 0 0 0 0 0 0 0 0 0 0 0 0 0 0 0.1 0"/>
<feBlend mode="normal" in2="BackgroundImageFix" result="effect1_dropShadow_2157_1086"/>
<feBlend mode="normal" in="SourceGraphic" in2="effect1_dropShadow_2157_1086" result="shape"/>
</filter>
</defs>
</svg>
