<svg width="14" height="22" viewBox="0 0 14 22" fill="none" xmlns="http://www.w3.org/2000/svg">
<path d="M7 0C7.55228 0 8 0.447715 8 1V2H10C12.2091 2 14 3.79086 14 6V7C14 7.55228 13.5523 8 13 8C12.4477 8 12 7.55228 12 7V6C12 4.89543 11.1046 4 10 4H4C2.89543 4 2 4.89543 2 6V6.11696C2 7.40825 2.82629 8.55467 4.05132 8.96301L10.5811 11.1396C12.6228 11.8202 14 13.7309 14 15.883V16C14 18.2091 12.2091 20 10 20H8V21C8 21.5523 7.55228 22 7 22C6.44772 22 6 21.5523 6 21V20H4C1.79086 20 0 18.2091 0 16V15C0 14.4477 0.447715 14 1 14C1.55228 14 2 14.4477 2 15V16C2 17.1046 2.89543 18 4 18H10C11.1046 18 12 17.1046 12 16V15.883C12 14.5917 11.1737 13.4453 9.94868 13.037L3.41886 10.8604C1.37715 10.1798 0 8.26912 0 6.11696V6C0 3.79086 1.79086 2 4 2H6V1C6 0.447715 6.44772 0 7 0Z" fill="#A5A8B4"/>
</svg>
