<svg width="13" height="13" viewBox="0 0 13 13" fill="none" xmlns="http://www.w3.org/2000/svg">
<path d="M12.4199 0.62C12.3185 0.375651 12.1243 0.181475 11.8799 0.0799999C11.7597 0.028759 11.6306 0.00157999 11.4999 0H1.49994C1.23472 0 0.980369 0.105357 0.792832 0.292893C0.605296 0.48043 0.499939 0.734784 0.499939 1C0.499939 1.26522 0.605296 1.51957 0.792832 1.70711C0.980369 1.89464 1.23472 2 1.49994 2H9.08994L0.789939 10.29C0.696211 10.383 0.621816 10.4936 0.571048 10.6154C0.520279 10.7373 0.494141 10.868 0.494141 11C0.494141 11.132 0.520279 11.2627 0.571048 11.3846C0.621816 11.5064 0.696211 11.617 0.789939 11.71C0.882902 11.8037 0.993503 11.8781 1.11536 11.9289C1.23722 11.9797 1.36793 12.0058 1.49994 12.0058C1.63195 12.0058 1.76266 11.9797 1.88452 11.9289C2.00638 11.8781 2.11698 11.8037 2.20994 11.71L10.4999 3.41V11C10.4999 11.2652 10.6053 11.5196 10.7928 11.7071C10.9804 11.8946 11.2347 12 11.4999 12C11.7652 12 12.0195 11.8946 12.207 11.7071C12.3946 11.5196 12.4999 11.2652 12.4999 11V1C12.4984 0.869323 12.4712 0.740222 12.4199 0.62Z" fill="#1A6AF4"/>
</svg>
