<svg width="24" height="24" viewBox="0 0 24 24" fill="none" xmlns="http://www.w3.org/2000/svg">
<path fill-rule="evenodd" clip-rule="evenodd" d="M9.09404 3.53021C8.91179 4.07694 8.49582 4.50673 7.9923 4.78709C7.91399 4.83069 7.83646 4.87554 7.75974 4.9216C7.26504 5.21857 6.68419 5.36439 6.11891 5.24871L4.91713 5.00278C4.07375 4.8302 3.21455 5.21665 2.78412 5.96218L2.16314 7.03775C1.73271 7.78328 1.82763 8.72059 2.39879 9.36469L3.21381 10.2838C3.59573 10.7145 3.76078 11.2889 3.75166 11.8644C3.75023 11.9548 3.75023 12.0452 3.75166 12.1355C3.76078 12.7111 3.59572 13.2854 3.21381 13.7161L2.39879 14.6352C1.82763 15.2793 1.73271 16.2167 2.16314 16.9622L2.78412 18.0378C3.21455 18.7833 4.07375 19.1697 4.91714 18.9971L6.11883 18.7512C6.68411 18.6356 7.26497 18.7814 7.75967 19.0784C7.83642 19.1244 7.91397 19.1693 7.9923 19.2129C8.49582 19.4933 8.91179 19.9231 9.09404 20.4698L9.48159 21.6325C9.75382 22.4491 10.5181 23 11.379 23H12.6209C13.4818 23 14.2461 22.4491 14.5183 21.6325L14.9058 20.4698C15.0881 19.9231 15.5041 19.4933 16.0076 19.2129C16.0859 19.1693 16.1635 19.1244 16.2402 19.0784C16.7349 18.7814 17.3158 18.6356 17.881 18.7512L19.0827 18.9971C19.9261 19.1697 20.7853 18.7833 21.2157 18.0378L21.8367 16.9622C22.2671 16.2167 22.1722 15.2793 21.601 14.6352L20.7861 13.7162C20.4041 13.2855 20.2391 12.7111 20.2482 12.1356C20.2496 12.0452 20.2496 11.9548 20.2482 11.8644C20.2391 11.2888 20.4041 10.7144 20.7861 10.2838L21.601 9.36469C22.1722 8.72059 22.2671 7.78328 21.8367 7.03775L21.2157 5.96218C20.7853 5.21666 19.9261 4.8302 19.0827 5.00279L17.881 5.2487C17.3157 5.36438 16.7348 5.21857 16.2401 4.92159C16.1634 4.87554 16.0859 4.83069 16.0076 4.78709C15.5041 4.50673 15.0881 4.07694 14.9058 3.53021L14.5183 2.36754C14.2461 1.55086 13.4818 1 12.6209 1H11.379C10.5181 1 9.75382 1.55086 9.48159 2.36754L9.09404 3.53021ZM15 12C15 13.6569 13.6569 15 12 15C10.3431 15 9 13.6569 9 12C9 10.3431 10.3431 9 12 9C13.6569 9 15 10.3431 15 12Z" fill="#2A85FF"/>
</svg>
