<svg width="33" height="32" viewBox="0 0 33 32" fill="none" xmlns="http://www.w3.org/2000/svg">
<path d="M22.529 1.90825C19.9881 4.52617 17.4472 7.13446 14.9062 9.75238C14.8774 9.77163 14.8581 9.79088 14.8292 9.81976L9.29503 15.354C8.76568 15.8833 8.76568 16.7592 9.29503 17.2885L14.5405 22.534L8.08232 29.3002C7.08135 28.6168 6.12851 27.8276 5.18529 26.8747C-1.58088 20.1182 -1.81187 11.7639 5.00242 4.94003C10.4019 -0.459427 16.7734 -1.37377 22.529 1.90825Z" fill="url(#paint0_linear_2104_64143)"/>
<path d="M27.0719 26.9999C21.6821 32.3801 15.349 33.3426 9.63193 30.253L11.9034 27.8757C13.6454 26.0759 15.3779 24.2857 17.1199 22.4859L18.8716 20.7342L22.3077 17.2982C22.837 16.7688 22.837 15.893 22.3077 15.3636L20.7292 13.7852L17.1007 10.1567L23.4915 3.4675L24.0497 2.89001C24.993 3.55412 25.9362 4.35297 26.8313 5.24807C33.5397 11.9372 33.8284 20.2337 27.0719 26.9999Z" fill="url(#paint1_linear_2104_64143)"/>
<defs>
<linearGradient id="paint0_linear_2104_64143" x1="18.4881" y1="-10.7568" x2="-24.5516" y2="83.2807" gradientUnits="userSpaceOnUse">
<stop stop-color="#00DECA"/>
<stop offset="0.37798" stop-color="#3A8AFA"/>
<stop offset="1" stop-color="#1A6AF4"/>
</linearGradient>
<linearGradient id="paint1_linear_2104_64143" x1="27.9903" y1="-7.79701" x2="-14.7849" y2="85.6131" gradientUnits="userSpaceOnUse">
<stop stop-color="#00DECA"/>
<stop offset="0.37798" stop-color="#3A8AFA"/>
<stop offset="1" stop-color="#1A6AF4"/>
</linearGradient>
</defs>
</svg>
